<?xml version="1.0" encoding="iso-8859-1"?>
<!-- Generator: Adobe Illustrator 19.0.0, SVG Export Plug-In . SVG Version: 6.00 Build 0)  -->
<svg version="1.1" id="Layer_1" xmlns="http://www.w3.org/2000/svg" xmlns:xlink="http://www.w3.org/1999/xlink" x="0px" y="0px"
	 viewBox="0 0 57.293 57.293" style="enable-background:new 0 0 57.293 57.293;" xml:space="preserve">
<g>
	<path style="fill:#FFFFFF;" d="M28.646,25.293c1.304,0,2.416-1,2.829-2h-5.657C26.23,24.293,27.342,25.293,28.646,25.293z"/>
	<polygon style="fill:#66CEDB;" points="37.028,27.293 19.646,27.293 8.646,27.293 7.264,27.293 3.264,35.293 33.028,35.293 	"/>
	<path style="fill:#66CEDB;" d="M33.646,37.293h-26v14.708c0,1.654,1.346,3.292,3,3.292h7V44.001c0-0.347,0.18-0.668,0.474-0.851
		c0.295-0.184,0.663-0.198,0.973-0.044l1.553,0.776l1.552-0.776c0.281-0.141,0.612-0.141,0.895,0l1.553,0.776l1.553-0.776
		c0.31-0.154,0.678-0.14,0.973,0.044c0.294,0.183,0.474,0.504,0.474,0.851v11.292h10V30.237l-3.106,6.357
		C34.371,36.933,34.026,37.293,33.646,37.293z"/>
	<path style="fill:#EE8B26;" d="M24.199,45.895l-1.553-0.776l-1.552,0.776c-0.281,0.141-0.613,0.141-0.895,0l-0.553-0.276v9.674h6
		v-9.674l-0.553,0.276C24.813,46.036,24.482,46.036,24.199,45.895z"/>
	<path style="fill:#66CEDB;" d="M42.751,36.594l-3.105-6.357v25.056h7c1.654,0,3-1.638,3-3.292V37.293h-6
		C43.267,37.293,42.922,36.933,42.751,36.594z"/>
	<path style="fill:#F8CF26;" d="M23.646,22.293c0-0.553,0.448-1,1-1h8c0.552,0,1,0.447,1,1c0,1.13-0.391,2-1.026,3h4.026v-8.292
		c0-1.655-1.346-2.708-3-2.708h-10c-1.654,0-3,1.053-3,2.708v8.292h4.026C24.038,24.293,23.646,23.423,23.646,22.293z
		 M31.646,17.001c0.552,0,1,0.448,1,1s-0.448,1-1,1s-1-0.448-1-1C30.646,17.448,31.094,17.001,31.646,17.001z M25.646,17.001
		c0.552,0,1,0.448,1,1s-0.448,1-1,1s-1-0.448-1-1C24.646,17.448,25.094,17.001,25.646,17.001z"/>
	<polygon style="fill:#66CEDB;" points="48.646,27.293 40.264,27.293 44.264,35.293 54.028,35.293 50.028,27.293 	"/>
	<g>
		<path d="M51.541,25.699c-0.169-0.338-0.515-0.406-0.894-0.406h-2h-10v-8.292c0-2.757-2.243-4.708-5-4.708h-10
			c-2.757,0-5,1.951-5,4.708v8.292h-10h-2c-0.379,0-0.725,0.068-0.895,0.406l-5,9.927c-0.155,0.31-0.138,0.787,0.044,1.082
			c0.182,0.296,0.504,0.585,0.851,0.585h4v14.708c0,2.756,2.243,5.292,5,5.292h8h8h12h8c2.757,0,5-2.536,5-5.292V37.293h4
			c0.347,0,0.668-0.326,0.851-0.621c0.182-0.295,0.199-0.663,0.044-0.973L51.541,25.699z M20.646,17.001
			c0-1.655,1.346-2.708,3-2.708h10c1.654,0,3,1.053,3,2.708v8.292H32.62c0.635-1,1.026-1.87,1.026-3c0-0.553-0.448-1-1-1h-8
			c-0.552,0-1,0.447-1,1c0,1.13,0.391,2,1.026,3h-4.026V17.001z M25.817,23.293h5.657c-0.413,1-1.525,2-2.829,2
			C27.342,25.293,26.23,24.293,25.817,23.293z M7.264,27.293h1.382h11h17.382l-4,8H3.264L7.264,27.293z M7.646,52.001V37.293h26
			c0.379,0,0.725-0.36,0.894-0.699l3.106-6.357v25.056h-10V44.001c0-0.347-0.18-0.668-0.474-0.851
			c-0.295-0.184-0.664-0.198-0.973-0.044l-1.553,0.776l-1.553-0.776c-0.282-0.141-0.613-0.141-0.895,0l-1.552,0.776l-1.553-0.776
			c-0.31-0.154-0.678-0.14-0.973,0.044c-0.294,0.183-0.474,0.504-0.474,0.851v11.292h-7C8.992,55.293,7.646,53.655,7.646,52.001z
			 M19.646,55.293v-9.674l0.553,0.276c0.281,0.141,0.613,0.141,0.895,0l1.552-0.776l1.553,0.776c0.282,0.141,0.613,0.141,0.895,0
			l0.552-0.276v9.674H19.646z M49.646,52.001c0,1.654-1.346,3.292-3,3.292h-7V30.237l3.105,6.357
			c0.17,0.339,0.516,0.699,0.895,0.699h6V52.001z M44.264,35.293l-4-8h8.382h1.382l4,8H44.264z"/>
		<circle cx="25.646" cy="18.001" r="1"/>
		<circle cx="31.646" cy="18.001" r="1"/>
		<path d="M8.646,23.293h2c0-6-4.486-10.292-10-10.292v2C5.057,15.001,8.646,18.293,8.646,23.293z"/>
		<path d="M12.646,14.293h2c0-8-5.832-13.293-13-13.293v2C7.711,3,12.646,7.293,12.646,14.293z"/>
		<path d="M23.646,10.293h2c0-5-4.038-9.292-9-9.292v2C20.507,3,23.646,6.293,23.646,10.293z"/>
		<path d="M46.646,23.293h2c0-5,3.589-8.292,8-8.292v-2C51.132,13.001,46.646,17.293,46.646,23.293z"/>
		<path d="M55.646,3V1c-7.169,0-13,5.293-13,13.293h2C44.646,7.293,49.582,3,55.646,3z"/>
		<path d="M40.646,3V1c-4.962,0-9,4.293-9,9.293h2C33.646,6.293,36.786,3,40.646,3z"/>
		<rect x="12.646" y="16.001" width="2" height="2"/>
		<rect x="12.646" y="20.001" width="2" height="2"/>
		<rect x="42.646" y="16.001" width="2" height="2"/>
		<rect x="42.646" y="20.001" width="2" height="2"/>
		<rect x="12.646" y="1" width="2" height="2"/>
		<rect x="42.646" y="1" width="2" height="2"/>
		<rect x="27.646" y="8.001" width="2" height="2"/>
		<rect x="27.646" y="4" width="2" height="2"/>
		<rect x="27.646" width="2" height="2"/>
		<rect x="17.646" y="8.001" width="2" height="2"/>
		<rect x="37.646" y="8.001" width="2" height="2"/>
	</g>
</g>
<g>
</g>
<g>
</g>
<g>
</g>
<g>
</g>
<g>
</g>
<g>
</g>
<g>
</g>
<g>
</g>
<g>
</g>
<g>
</g>
<g>
</g>
<g>
</g>
<g>
</g>
<g>
</g>
<g>
</g>
</svg>
