<?xml version="1.0" encoding="iso-8859-1"?>
<!-- Generator: Adobe Illustrator 19.0.0, SVG Export Plug-In . SVG Version: 6.00 Build 0)  -->
<svg version="1.1" id="Layer_1" xmlns="http://www.w3.org/2000/svg" xmlns:xlink="http://www.w3.org/1999/xlink" x="0px" y="0px"
	 viewBox="0 0 480 480" style="enable-background:new 0 0 480 480;" xml:space="preserve">
<g>
	<g>
		<path style="fill:#7F858A;" d="M370,200l99.7,49.9c-1.1,28.6-7.6,55.8-18.3,80.7L450,330l-143.5-76.3L370,200z"/>
		<path style="fill:#AFB6BB;" d="M306.5,253.7L450,330l1.4,0.6C416.3,412.6,334.8,470,240,470c-91.8,0-171-53.8-207.9-131.6L215,205
			L306.5,253.7z"/>
		<path style="fill:#31C0D8;" d="M470,240c0,3.3-0.1,6.6-0.3,9.9L370,200l-63.5,53.7L215,205L32.1,338.4C17.9,308.6,10,275.2,10,240
			C10,113,113,10,240,10S470,113,470,240z"/>
	</g>
	<g>
		<rect x="215" y="120" style="fill:#FFD248;" width="80" height="50"/>
	</g>
	<path style="fill:#231F20;" d="M240,0C107.664,0,0,107.664,0,240c0,36.013,7.76,70.562,23.065,102.685
		c19.2,40.481,49.274,74.746,86.973,99.091C148.762,466.782,193.702,480,240,480c96.18,0,182.768-57.098,220.587-145.452
		c11.547-26.872,17.974-55.185,19.101-84.157c0.208-3.45,0.312-6.946,0.312-10.391C480,107.664,372.336,0,240,0z M20,240
		c0-121.309,98.691-220,220-220c119.24,0,216.622,95.356,219.908,213.817l-85.433-42.759c-3.577-1.791-7.878-1.277-10.933,1.307
		l-58.326,49.325L225,198.994V180h70c5.523,0,10-4.477,10-10v-50c0-5.523-4.477-10-10-10h-80c-5.523,0-10,4.477-10,10v79.917
		L36.219,323.019C25.451,296.782,20,268.912,20,240z M324.231,251.802l47.191-39.908l87.934,44.011
		c-1.415,20.767-5.818,41.133-13.142,60.756L324.231,251.802z M285,130v30h-60v-30H285z M240,460
		c-42.441,0-83.629-12.112-119.113-35.025c-32.251-20.827-58.413-49.572-76.072-83.471l97.853-71.37
		c6.947,0.675,11.632,3.971,17.387,8.035C167.519,283.44,176.809,290,191.646,290c15.368,0,23.395-6.879,29.845-12.407
		c5.336-4.572,8.861-7.593,16.832-7.593s11.496,3.021,16.831,7.593C261.604,283.121,269.632,290,285,290v-20
		c-7.971,0-11.496-3.021-16.832-7.593C261.718,256.879,253.69,250,238.323,250c-15.368,0-23.396,6.879-29.846,12.407
		c-5.335,4.573-8.86,7.593-16.831,7.593c-8.486,0-13.591-3.605-20.055-8.168c-2.779-1.963-5.813-4.103-9.29-6.018l53.53-39.043
		l85.974,45.759l136.555,72.607C401.911,411.291,325.05,460,240,460z"/>
</g>
<g>
</g>
<g>
</g>
<g>
</g>
<g>
</g>
<g>
</g>
<g>
</g>
<g>
</g>
<g>
</g>
<g>
</g>
<g>
</g>
<g>
</g>
<g>
</g>
<g>
</g>
<g>
</g>
<g>
</g>
</svg>
