<?xml version="1.0"?>
<svg width="512" height="512" xmlns="http://www.w3.org/2000/svg" xmlns:svg="http://www.w3.org/2000/svg">
 <g class="layer">
  <title>Layer 1</title>
  <path d="m377.023,437.574l-273.637,0c-14.168,0 -25.653,-11.485 -25.653,-25.653l0,-376.251c0,-14.168 11.485,-25.653 25.653,-25.653l273.637,0c14.168,0 25.653,11.485 25.653,25.653l0,376.251c0,14.168 -11.485,25.653 -25.653,25.653z" fill="#C7CFE2" id="svg_1"/>
  <path d="m402.676,266.551l-324.943,0l0,-230.881c0,-14.168 11.485,-25.653 25.653,-25.653l273.637,0c14.168,0 25.653,11.485 25.653,25.653l0,230.881z" fill="#00C3FF" id="svg_2"/>
  <path d="m342.818,471.779l-273.636,0c-14.168,0 -25.653,-11.485 -25.653,-25.653l0,-376.251c0,-14.168 11.485,-25.653 25.653,-25.653l273.637,0c14.168,0 25.653,11.485 25.653,25.653l0,376.251c0,14.167 -11.485,25.653 -25.654,25.653z" fill="#D5DCED" id="svg_3"/>
  <path d="m368.472,300.756l-324.944,0l0,-230.881c0,-14.168 11.485,-25.653 25.653,-25.653l273.637,0c14.168,0 25.653,11.485 25.653,25.653l0,230.881l0.001,0z" fill="#7DF5A5" id="svg_4"/>
  <path d="m308.614,505.983l-273.637,0c-14.168,0 -25.653,-11.485 -25.653,-25.653l0,-376.251c0,-14.168 11.485,-25.653 25.653,-25.653l273.637,0c14.168,0 25.653,11.485 25.653,25.653l0,376.251c0,14.168 -11.485,25.653 -25.653,25.653z" fill="#E4EAF8" id="svg_5"/>
  <path d="m334.267,334.96l-324.943,0l0,-230.881c0,-14.168 11.485,-25.653 25.653,-25.653l273.637,0c14.168,0 25.653,11.485 25.653,25.653l0,230.881z" fill="#FFC850" id="svg_6"/>
  <path d="m377.023,2l-273.637,0c-18.566,0 -33.67,15.105 -33.67,33.67l0,0.534l-0.534,0c-18.566,0 -33.67,15.105 -33.67,33.67l0,0.534l-0.534,0c-18.566,0 -33.67,15.105 -33.67,33.67l0,376.252c0,18.566 15.105,33.67 33.67,33.67l273.637,0c18.566,0 33.67,-15.105 33.67,-33.67l0,-0.534l0.534,0c18.566,0 33.67,-15.105 33.67,-33.67l0,-0.534l0.534,0c18.566,0 33.67,-15.105 33.67,-33.67l0,-376.252c0,-18.565 -15.104,-33.67 -33.67,-33.67zm-291.274,33.67c0,-9.725 7.912,-17.637 17.637,-17.637l273.637,0c9.725,0 17.637,7.912 17.637,17.637l0,222.864l-18.171,0l0,-188.659c0,-18.566 -15.105,-33.67 -33.67,-33.67l-257.07,0l0,-0.535zm-34.204,34.205c0,-9.725 7.912,-17.637 17.637,-17.637l273.637,0c9.725,0 17.637,7.912 17.637,17.637l0,222.864l-18.171,0l0,-188.66c0,-18.566 -15.105,-33.67 -33.67,-33.67l-257.07,0l0,-0.534zm-16.568,16.568l273.637,0c9.725,0 17.637,7.912 17.637,17.637l0,222.864l-308.911,0l0,-222.865c0,-9.724 7.912,-17.636 17.637,-17.636zm291.274,393.887c0,9.725 -7.912,17.637 -17.637,17.637l-273.637,0c-9.725,0 -17.637,-7.912 -17.637,-17.637l0,-137.353l308.91,0l0,137.353l0.001,0zm34.204,-34.205c0,9.725 -7.912,17.637 -17.637,17.637l-0.534,0l0,-154.99l18.171,0l0,137.353zm16.568,-16.568l-0.534,0l0,-154.99l18.171,0l0,137.353c0,9.725 -7.912,17.637 -17.637,17.637z" fill="black" id="svg_7"/>
  <path d="m49.934,291.378c4.267,1.184 8.685,-1.314 9.87,-5.579l10.245,-36.885l92.327,0l10.245,36.884c0.986,3.549 4.209,5.874 7.721,5.874c0.71,0 1.432,-0.095 2.15,-0.294c4.266,-1.185 6.764,-5.604 5.579,-9.87l-39.276,-141.395c-3.008,-10.832 -12.96,-18.397 -24.202,-18.397l-16.757,0c-11.242,0 -21.194,7.565 -24.203,18.396l-39.279,141.396c-1.184,4.266 1.313,8.685 5.58,9.87zm49.147,-146.975c1.088,-3.917 4.688,-6.654 8.754,-6.654l16.757,0c4.066,0 7.666,2.736 8.753,6.654l24.577,88.478l-83.42,0l24.579,-88.478z" id="svg_8"/>
  <path d="m244.48,291.67c11.959,0 22.875,-4.541 31.122,-11.986c1.995,6.911 8.365,11.986 15.909,11.986c4.427,0 8.017,-3.589 8.017,-8.017c0,-4.427 -3.589,-8.017 -8.017,-8.017c-0.295,0 -0.534,-0.239 -0.534,-0.534l0,-29.929l0,-8.551l0,-38.48c0,-4.427 -3.589,-8.017 -8.017,-8.017c-4.427,0 -8.017,3.589 -8.017,8.017l0,3.398c-8.166,-7.101 -18.818,-11.415 -30.463,-11.415c-25.638,0 -46.497,20.858 -46.497,46.497l0,8.551c0,25.639 20.859,46.497 46.497,46.497zm-30.463,-55.048c0,-16.798 13.666,-30.463 30.463,-30.463c16.798,0 30.463,13.666 30.463,30.463l0,8.551c0,16.798 -13.666,30.463 -30.463,30.463c-16.798,0 -30.463,-13.666 -30.463,-30.463l0,-8.551z" fill="black" id="svg_9"/>
  <path d="m282.96,378.251l-222.33,0c-4.427,0 -8.017,3.589 -8.017,8.017c0,4.427 3.589,8.017 8.017,8.017l222.33,0c4.427,0 8.017,-3.589 8.017,-8.017c0,-4.428 -3.589,-8.017 -8.017,-8.017z" id="svg_10"/>
  <path d="m197.449,446.66l-136.819,0c-4.427,0 -8.017,3.589 -8.017,8.017c0,4.427 3.589,8.017 8.017,8.017l136.818,0c4.427,0 8.017,-3.589 8.017,-8.017c0.001,-4.428 -3.589,-8.017 -8.016,-8.017z" id="svg_11"/>
  <path d="m60.63,428.489l51.304,0c4.427,0 8.017,-3.589 8.017,-8.017c0,-4.427 -3.589,-8.017 -8.017,-8.017l-51.304,0c-4.427,0 -8.017,3.589 -8.017,8.017c0.001,4.427 3.59,8.017 8.017,8.017z" id="svg_12"/>
  <path d="m282.96,412.455l-136.818,0c-4.427,0 -8.017,3.589 -8.017,8.017c0,4.427 3.589,8.017 8.017,8.017l136.818,0c4.427,0 8.017,-3.589 8.017,-8.017c0,-4.428 -3.589,-8.017 -8.017,-8.017z" id="svg_13"/>
  <g id="svg_14"/>
  <g id="svg_15"/>
  <g id="svg_16"/>
  <g id="svg_17"/>
  <g id="svg_18"/>
  <g id="svg_19"/>
  <g id="svg_20"/>
  <g id="svg_21"/>
  <g id="svg_22"/>
  <g id="svg_23"/>
  <g id="svg_24"/>
  <g id="svg_25"/>
  <g id="svg_26"/>
  <g id="svg_27"/>
  <g id="svg_28"/>
 </g>
</svg>