<?xml version="1.0" encoding="iso-8859-1"?>
<!-- Generator: Adobe Illustrator 19.0.0, SVG Export Plug-In . SVG Version: 6.00 Build 0)  -->
<svg version="1.1" id="Layer_1" xmlns="http://www.w3.org/2000/svg" xmlns:xlink="http://www.w3.org/1999/xlink" x="0px" y="0px"
	 viewBox="0 0 512 512" style="enable-background:new 0 0 512 512;" xml:space="preserve">
<rect x="33.391" y="11.13" style="fill:#EDF0F2;" width="300.522" height="489.739"/>
<rect x="183.652" y="11.13" style="fill:#DAE1E6;" width="150.261" height="489.739"/>
<path style="fill:#FF9F19;" d="M478.609,165.331h-66.783c-9.217,0-16.696,7.473-16.696,16.696v179.712
	c0,9.223,7.479,16.696,16.696,16.696h66.783c9.217,0,16.696-7.473,16.696-16.696V182.027
	C495.304,172.804,487.826,165.331,478.609,165.331z"/>
<path style="fill:#F28618;" d="M478.609,165.331h-33.391v213.103h33.391c9.217,0,16.696-7.473,16.696-16.696V182.027
	C495.304,172.804,487.826,165.331,478.609,165.331z"/>
<path style="fill:#736056;" d="M257.902,246.63c-29.38-14.69-49.592-34.452-55.855-68.543h48.387
	c9.217,0,16.696-7.473,16.696-16.696s-7.479-16.696-16.696-16.696h-50.087V128c0-9.223-7.479-16.696-16.696-16.696
	s-16.696,7.473-16.696,16.696v16.696H116.87c-9.217,0-16.696,7.473-16.696,16.696s7.479,16.696,16.696,16.696h48.388
	c-6.294,34.262-26.695,53.963-55.856,68.543c-8.25,4.125-11.587,14.152-7.467,22.402c4.094,8.188,14.064,11.617,22.402,7.467
	c11.13-5.565,25.756-12.315,42.62-30.442v48.898c0,9.223,7.479,16.696,16.696,16.696s16.696-7.473,16.696-16.696v-48.898
	c16.865,18.127,31.489,24.877,42.62,30.442c8.338,4.149,18.308,0.72,22.402-7.467C269.489,260.783,266.152,250.755,257.902,246.63z"
	/>
<path style="fill:#665247;" d="M200.348,294.957v-48.898c16.864,18.127,31.489,24.877,42.62,30.442
	c8.337,4.149,18.308,0.72,22.402-7.467c4.119-8.25,0.782-18.277-7.467-22.402c-29.38-14.69-49.591-34.452-55.855-68.543h48.387
	c9.217,0,16.696-7.473,16.696-16.696s-7.479-16.696-16.696-16.696h-50.087V128c0-9.223-7.479-16.696-16.696-16.696v200.348
	C192.869,311.652,200.348,304.179,200.348,294.957z"/>
<path style="fill:#736056;" d="M445.217,211.478c-36.826,0-66.783-29.956-66.783-66.783c0-30.484,43.5-109.511,52.228-125.044
	c2.956-5.26,8.521-8.521,14.554-8.521s11.598,3.261,14.554,8.521C468.5,35.184,512,114.212,512,144.696
	C512,181.522,482.044,211.478,445.217,211.478z"/>
<path style="fill:#665247;" d="M512,144.696c0-30.484-43.5-109.511-52.228-125.044c-2.956-5.26-8.521-8.521-14.554-8.521v200.348
	C482.044,211.478,512,181.522,512,144.696z"/>
<path style="fill:#A6673A;" d="M350.609,33.391H16.696C7.479,33.391,0,25.918,0,16.696S7.479,0,16.696,0h333.913
	c9.217,0,16.696,7.473,16.696,16.696S359.826,33.391,350.609,33.391z"/>
<path style="fill:#99522E;" d="M350.609,0H183.652v33.391h166.957c9.217,0,16.696-7.473,16.696-16.696S359.826,0,350.609,0z"/>
<path style="fill:#A6673A;" d="M350.609,512H16.696C7.479,512,0,504.527,0,495.304s7.479-16.696,16.696-16.696h333.913
	c9.217,0,16.696,7.473,16.696,16.696S359.826,512,350.609,512z"/>
<path style="fill:#99522E;" d="M350.609,478.609H183.652V512h166.957c9.217,0,16.696-7.473,16.696-16.696
	S359.826,478.609,350.609,478.609z"/>
<path style="fill:#736056;" d="M495.304,512H217.043c-9.217,0-16.696-7.473-16.696-16.696V361.739
	c0-9.223,7.479-16.696,16.696-16.696h278.261c9.217,0,16.696,7.473,16.696,16.696v133.565C512,504.527,504.521,512,495.304,512z"/>
<path style="fill:#665247;" d="M495.304,345.043h-139.13V512h139.13c9.217,0,16.696-7.473,16.696-16.696V361.739
	C512,352.516,504.521,345.043,495.304,345.043z"/>
<rect x="339.478" y="345.043" style="fill:#8C7468;" width="33.391" height="166.957"/>
<rect x="356.174" y="345.043" style="fill:#806A5F;" width="16.696" height="166.957"/>
<g>
</g>
<g>
</g>
<g>
</g>
<g>
</g>
<g>
</g>
<g>
</g>
<g>
</g>
<g>
</g>
<g>
</g>
<g>
</g>
<g>
</g>
<g>
</g>
<g>
</g>
<g>
</g>
<g>
</g>
</svg>
