<?xml version="1.0" encoding="iso-8859-1"?>
<!-- Generator: Adobe Illustrator 19.0.0, SVG Export Plug-In . SVG Version: 6.00 Build 0)  -->
<svg version="1.1" id="Layer_1" xmlns="http://www.w3.org/2000/svg" xmlns:xlink="http://www.w3.org/1999/xlink" x="0px" y="0px"
	 viewBox="0 0 512 512" style="enable-background:new 0 0 512 512;" xml:space="preserve">
<path style="fill:#C7CFE2;" d="M427.023,435.574H153.386c-14.168,0-25.653-11.485-25.653-25.653V33.67
	c0-14.168,11.485-25.653,25.653-25.653h273.637c14.168,0,25.653,11.485,25.653,25.653v376.251
	C452.676,424.089,441.191,435.574,427.023,435.574z"/>
<path style="fill:#00C3FF;" d="M452.676,264.551H127.733V33.67c0-14.168,11.485-25.653,25.653-25.653h273.637
	c14.168,0,25.653,11.485,25.653,25.653V264.551z"/>
<path style="fill:#D5DCED;" d="M392.818,469.779H119.182c-14.168,0-25.653-11.485-25.653-25.653V67.875
	c0-14.168,11.485-25.653,25.653-25.653h273.637c14.168,0,25.653,11.485,25.653,25.653v376.251
	C418.472,458.293,406.987,469.779,392.818,469.779z"/>
<path style="fill:#7DF5A5;" d="M418.472,298.756H93.528V67.875c0-14.168,11.485-25.653,25.653-25.653h273.637
	c14.168,0,25.653,11.485,25.653,25.653V298.756z"/>
<path style="fill:#E4EAF8;" d="M358.614,503.983H84.977c-14.168,0-25.653-11.485-25.653-25.653V102.079
	c0-14.168,11.485-25.653,25.653-25.653h273.637c14.168,0,25.653,11.485,25.653,25.653V478.33
	C384.267,492.498,372.782,503.983,358.614,503.983z"/>
<path style="fill:#FFC850;" d="M384.267,332.96H59.324V102.079c0-14.168,11.485-25.653,25.653-25.653h273.637
	c14.168,0,25.653,11.485,25.653,25.653V332.96z"/>
<path d="M427.023,0H153.386c-18.566,0-33.67,15.105-33.67,33.67v0.534h-0.534c-18.566,0-33.67,15.105-33.67,33.67v0.534h-0.534
	c-18.566,0-33.67,15.105-33.67,33.67V478.33c0,18.566,15.105,33.67,33.67,33.67h273.637c18.566,0,33.67-15.105,33.67-33.67v-0.534
	h0.534c18.566,0,33.67-15.105,33.67-33.67v-0.534h0.534c18.566,0,33.67-15.105,33.67-33.67V33.67
	C460.693,15.105,445.589,0,427.023,0z M135.749,33.67c0-9.725,7.912-17.637,17.637-17.637h273.637
	c9.725,0,17.637,7.912,17.637,17.637v222.864h-18.171V67.875c0-18.566-15.105-33.67-33.67-33.67H135.749V33.67z M101.545,67.875
	c0-9.725,7.912-17.637,17.637-17.637h273.637c9.725,0,17.637,7.912,17.637,17.637v222.864h-18.171v-188.66
	c0-18.566-15.105-33.67-33.67-33.67H101.545V67.875z M84.977,84.443h273.637c9.725,0,17.637,7.912,17.637,17.637v222.864H67.34
	V102.079C67.34,92.355,75.252,84.443,84.977,84.443z M376.251,478.33c0,9.725-7.912,17.637-17.637,17.637H84.977
	c-9.725,0-17.637-7.912-17.637-17.637V340.977h308.91V478.33z M410.455,444.125c0,9.725-7.912,17.637-17.637,17.637h-0.534v-154.99
	h18.171V444.125z M427.023,427.557h-0.534v-154.99h18.171v137.353C444.66,419.645,436.748,427.557,427.023,427.557z"/>
<path d="M99.934,289.378c4.267,1.184,8.685-1.314,9.87-5.579l10.245-36.885h92.327l10.245,36.884
	c0.986,3.549,4.209,5.874,7.721,5.874c0.71,0,1.432-0.095,2.15-0.294c4.266-1.185,6.764-5.604,5.579-9.87l-39.276-141.395
	c-3.008-10.832-12.96-18.397-24.202-18.397h-16.757c-11.242,0-21.194,7.565-24.203,18.396L94.354,279.508
	C93.17,283.774,95.667,288.193,99.934,289.378z M149.081,142.403c1.088-3.917,4.688-6.654,8.754-6.654h16.757
	c4.066,0,7.666,2.736,8.753,6.654l24.577,88.478h-83.42L149.081,142.403z"/>
<path d="M294.48,289.67c11.959,0,22.875-4.541,31.122-11.986c1.995,6.911,8.365,11.986,15.909,11.986
	c4.427,0,8.017-3.589,8.017-8.017c0-4.427-3.589-8.017-8.017-8.017c-0.295,0-0.534-0.239-0.534-0.534v-29.929v-8.551v-38.48
	c0-4.427-3.589-8.017-8.017-8.017c-4.427,0-8.017,3.589-8.017,8.017v3.398c-8.166-7.101-18.818-11.415-30.463-11.415
	c-25.638,0-46.497,20.858-46.497,46.497v8.551C247.983,268.812,268.842,289.67,294.48,289.67z M264.017,234.622
	c0-16.798,13.666-30.463,30.463-30.463c16.798,0,30.463,13.666,30.463,30.463v8.551c0,16.798-13.666,30.463-30.463,30.463
	c-16.798,0-30.463-13.666-30.463-30.463V234.622z"/>
<path d="M332.96,376.251H110.63c-4.427,0-8.017,3.589-8.017,8.017c0,4.427,3.589,8.017,8.017,8.017h222.33
	c4.427,0,8.017-3.589,8.017-8.017C340.977,379.84,337.388,376.251,332.96,376.251z"/>
<path d="M247.449,444.66H110.63c-4.427,0-8.017,3.589-8.017,8.017c0,4.427,3.589,8.017,8.017,8.017h136.818
	c4.427,0,8.017-3.589,8.017-8.017C255.466,448.249,251.876,444.66,247.449,444.66z"/>
<path d="M110.63,426.489h51.304c4.427,0,8.017-3.589,8.017-8.017c0-4.427-3.589-8.017-8.017-8.017H110.63
	c-4.427,0-8.017,3.589-8.017,8.017C102.614,422.899,106.203,426.489,110.63,426.489z"/>
<path d="M332.96,410.455H196.142c-4.427,0-8.017,3.589-8.017,8.017c0,4.427,3.589,8.017,8.017,8.017H332.96
	c4.427,0,8.017-3.589,8.017-8.017C340.977,414.044,337.388,410.455,332.96,410.455z"/>
<g>
</g>
<g>
</g>
<g>
</g>
<g>
</g>
<g>
</g>
<g>
</g>
<g>
</g>
<g>
</g>
<g>
</g>
<g>
</g>
<g>
</g>
<g>
</g>
<g>
</g>
<g>
</g>
<g>
</g>
</svg>
